<svg width="19.52" height="28.96" viewBox="0 -9 19.52 39.96" xmlns="http://www.w3.org/2000/svg"><g id="svgGroup" stroke-linecap="round" fill-rule="nonzero" font-size="9pt" stroke="#ffffff" stroke-width="1.25mm" fill="#ffffff" style="stroke:#ffffff;stroke-width:1.25mm;fill:#ffffff"><path d="M 0 26.12 L 1.92 22.92 Q 3.36 24.12 5.16 24.88 A 9.339 9.339 0 0 0 7.308 25.484 A 12.847 12.847 0 0 0 9.36 25.64 A 11.192 11.192 0 0 0 11.179 25.501 Q 12.148 25.342 12.933 24.997 A 5.48 5.48 0 0 0 13.92 24.44 Q 15.6 23.24 15.6 21.2 Q 15.6 20.04 15.12 19.14 Q 14.64 18.24 13.26 17.38 A 12.842 12.842 0 0 0 12.271 16.829 Q 11.043 16.208 9.2 15.52 A 36.165 36.165 0 0 1 7.357 14.748 Q 6.454 14.338 5.704 13.925 A 15.798 15.798 0 0 1 4.6 13.26 A 8.773 8.773 0 0 1 3.364 12.281 Q 2.579 11.527 2.14 10.66 A 6.667 6.667 0 0 1 1.532 8.791 A 9.171 9.171 0 0 1 1.4 7.2 Q 1.4 5.2 2.5 3.58 Q 3.6 1.96 5.74 0.98 Q 7.679 0.092 10.357 0.009 A 18.092 18.092 0 0 1 10.92 0 Q 13.4 0 15.38 0.5 Q 17.36 1 19.24 1.92 L 17.84 5.16 A 12.598 12.598 0 0 0 16.19 4.353 A 16.674 16.674 0 0 0 14.66 3.82 Q 12.84 3.28 10.84 3.28 A 10.875 10.875 0 0 0 9.228 3.392 Q 8.375 3.52 7.68 3.795 A 5.047 5.047 0 0 0 6.68 4.32 Q 5.16 5.36 5.16 7 A 4.186 4.186 0 0 0 5.277 8.009 A 3.425 3.425 0 0 0 5.6 8.84 A 2.765 2.765 0 0 0 6.027 9.41 Q 6.507 9.913 7.34 10.4 A 13.201 13.201 0 0 0 8.226 10.869 Q 9.412 11.445 11.24 12.12 A 32.491 32.491 0 0 1 13.231 12.932 Q 14.986 13.72 16.18 14.56 A 10.417 10.417 0 0 1 17.396 15.551 Q 18.028 16.156 18.451 16.805 A 5.692 5.692 0 0 1 18.76 17.34 A 7.031 7.031 0 0 1 19.456 19.685 A 8.862 8.862 0 0 1 19.52 20.76 A 8.684 8.684 0 0 1 19.253 22.96 A 6.842 6.842 0 0 1 18.22 25.2 A 7.847 7.847 0 0 1 15.447 27.609 A 9.743 9.743 0 0 1 14.62 28 A 12.209 12.209 0 0 1 11.656 28.802 A 16.011 16.011 0 0 1 9.36 28.96 A 18.947 18.947 0 0 1 6.25 28.715 A 15.22 15.22 0 0 1 4.04 28.18 A 15.282 15.282 0 0 1 1.893 27.307 A 11.373 11.373 0 0 1 0 26.12 Z"/></g></svg>